Coordinates
version=1
nRows=17
nColumns=34
inDegrees=yes

Units are S.I. units (second, meters, Newtons, ...)
If the header above contains a line with 'inDegrees', this indicates whether rotational values are in degrees (yes) or radians (no).

endheader
time	pelvis_tilt	pelvis_list	pelvis_rotation	pelvis_tx	pelvis_ty	pelvis_tz	hip_flexion_r	hip_adduction_r	hip_rotation_r	knee_angle_r	ankle_angle_r	subtalar_angle_r	mtp_angle_r	hip_flexion_l	hip_adduction_l	hip_rotation_l	knee_angle_l	ankle_angle_l	subtalar_angle_l	mtp_angle_l	lumbar_extension	lumbar_bending	lumbar_rotation	arm_flex_r	arm_add_r	arm_rot_r	elbow_flex_r	pro_sup_r	arm_flex_l	arm_add_l	arm_rot_l	elbow_flex_l	pro_sup_l
      5.43333330	     -0.25782141	     -1.19382564	     28.62164416	      0.20655998	      0.88752686	     -0.19798890	     25.70794297	     -3.68047069	     -3.48547885	     29.78176450	      8.95119767	    -15.83064179	      0.00000000	      5.57219972	      4.77438185	      1.10794244	     10.88091920	      1.87337720	    -23.03361203	      0.00000000	     -1.77570932	     -3.49237630	     -7.75696684	     -2.48945020	     -1.85467837	     -5.34169831	     24.32737250	     81.73808268	      2.44234986	    -15.42280512	     11.83711526	     35.67053620	     76.83957510
      5.45000000	      0.29220941	     -1.31264505	     28.81920965	      0.20548781	      0.88715717	     -0.19641745	     25.19551439	     -3.10222079	     -3.63519085	     27.70801948	      8.81548166	    -15.09519059	      0.00000000	      3.91303937	      4.29901280	      0.82987358	      9.90040144	      3.08836106	    -20.82420886	      0.00000000	     -2.52887362	     -3.04005997	     -8.24391719	     -2.17206821	     -1.84899827	     -5.13618044	     24.00196696	     82.03339777	      2.70914344	    -15.43575679	     12.34704463	     35.44224475	     77.40029511
      5.46666670	      0.08719745	     -1.67343811	     29.01678319	      0.20272651	      0.88441522	     -0.19353083	     25.73560252	     -2.65083937	     -3.71146516	     26.01925658	      8.46217030	    -14.72341322	      0.00000000	      3.19504547	      3.94791671	      0.38881440	      8.93448601	      2.46178639	    -20.42595460	      0.00000000	     -2.31445576	     -2.85050507	     -8.46671065	     -2.24667856	     -1.83464121	     -5.12938467	     23.96207136	     82.06744951	      2.79026619	    -15.33358057	     12.46400019	     35.51164024	     77.49729304
      5.48333330	      0.03941752	     -2.00501792	     29.37178949	      0.19959376	      0.88246908	     -0.19067324	     26.16529883	     -2.25084422	     -4.11616286	     24.57619442	      7.92440827	    -14.45748561	      0.00000000	      2.54706274	      3.46489304	     -0.64473243	      8.30269223	      1.05571386	    -20.05942901	      0.00000000	     -2.45706653	     -2.43590033	     -8.87156738	     -2.18447111	     -1.85365912	     -5.14061135	     23.91842898	     82.09897406	      2.97295253	    -15.20641669	     12.65956638	     35.54753359	     77.62959326
      5.50000000	      0.67643015	     -2.17547018	     29.89934407	      0.19736814	      0.88226771	     -0.18864328	     25.68001533	     -1.64329161	     -4.46600691	     23.01537583	      7.05189312	    -14.55885674	      0.00000000	      1.19940312	      2.76683067	     -1.40001814	      7.58764408	     -1.33644793	    -20.93426785	      0.00000000	     -3.43893258	     -1.74816151	     -9.39575329	     -1.72539499	     -1.88392303	     -5.14475325	     23.72655264	     82.26023163	      3.43924684	    -15.20842714	     13.50390672	     35.45197820	     78.29952239
      5.51666670	      0.55661315	     -2.53480295	     30.41225486	      0.19600558	      0.88132356	     -0.18713319	     26.17227314	     -1.31977527	     -4.85926992	     21.89245865	      6.47451328	    -14.27690831	      0.00000000	      1.10163901	      2.26009031	     -2.54050702	      7.48248423	     -3.31460824	    -20.66006666	      0.00000000	     -3.57514505	     -1.43003718	     -9.66707972	     -1.66756220	     -1.89361022	     -5.16253521	     23.75490235	     82.27971706	      3.71072086	    -15.07423889	     13.67698016	     35.55498628	     78.42023326
      5.53333330	      0.96587222	     -2.80671001	     30.93454317	      0.19518719	      0.88101940	     -0.18636012	     25.83259106	     -0.75575694	     -4.95665022	     20.46823289	      5.65947379	    -14.37519230	      0.00000000	      0.41599531	      1.69801004	     -2.55610750	      7.01631096	     -6.40177705	    -23.17060169	      0.00000000	     -4.18357872	     -0.66756412	    -10.13038987	     -1.47006491	     -1.97181734	     -5.28895290	     23.77177967	     82.40893429	      4.02633151	    -15.05810470	     14.81703980	     35.38887658	     79.28221008
      5.55000000	      0.81495723	     -3.01403516	     31.33801663	      0.19469888	      0.87953303	     -0.18518091	     26.14049886	     -0.59547715	     -5.11817342	     19.63828890	      5.30312913	    -14.22477362	      0.00000000	      0.60583546	      1.43233746	     -3.12205661	      7.12911603	     -7.30995599	    -23.15989035	      0.00000000	     -4.34374563	     -0.41226557	    -10.29889940	     -1.44460769	     -2.03651244	     -5.33018263	     23.79097096	     82.42440468	      4.13406315	    -14.86498082	     15.01242588	     35.42474484	     79.42235742
      5.56666670	      0.72368097	     -3.20305524	     31.81805839	      0.19459738	      0.87786087	     -0.18410409	     26.23740375	     -0.46528007	     -5.31345315	     19.00756340	      4.74005903	    -14.57952588	      0.00000000	      0.86134162	      1.20008022	     -2.71322472	      7.28777461	     -7.55000347	    -23.98573664	      0.00000000	     -4.45180821	     -0.07174322	    -10.73344577	     -1.33168246	     -2.11529699	     -5.44899387	     23.86762885	     82.46733612	      4.15695986	    -14.71193482	     15.62420440	     35.30568024	     79.87393496
      5.58333330	      0.58094996	     -3.15065415	     32.05501181	      0.19640876	      0.87686352	     -0.18365546	     26.25778839	     -0.47989730	     -5.23761027	     18.97538708	      4.68814556	    -14.55906785	      0.00000000	      0.90564345	      1.19082244	     -2.70036969	      7.32536911	     -7.47571310	    -24.04623830	      0.00000000	     -4.61394547	     -0.06641186	    -10.72064434	     -1.33129223	     -2.13767962	     -5.45519615	     23.85437626	     82.46847172	      4.06867495	    -14.61245678	     15.67078614	     35.28200258	     79.89047008
      5.60000000	      0.46854055	     -3.11640301	     32.64309516	      0.19845733	      0.87694126	     -0.18430417	     25.89377659	     -0.62796643	     -5.52673338	     18.77412806	      3.89208761	    -14.85871800	      0.00000000	      1.19424487	      1.19771119	     -1.98604774	      8.06554923	     -6.57514021	    -24.54205263	      0.00000000	     -4.82284171	      0.11574834	    -11.18343914	     -1.31097961	     -2.17644172	     -5.53850126	     23.78522858	     82.47888665	      4.07391304	    -14.40103423	     16.02651241	     35.12168405	     80.10514847
      5.61666670	      0.44482169	     -3.16590716	     33.28100156	      0.20020650	      0.87858343	     -0.18410703	     25.16493754	     -0.60191797	     -5.87886687	     18.24638423	      3.13260154	    -15.26564387	      0.00000000	      1.00014133	      1.00768385	     -1.84369156	      8.25941631	     -6.68721745	    -24.48081241	      0.00000000	     -4.57557340	      0.38583576	    -11.68758033	     -1.35735071	     -2.24007221	     -5.66248742	     23.67714801	     82.48751865	      3.78824928	    -14.19432593	     16.48136842	     34.78127926	     80.35947414
      5.63333330	      0.64980907	     -3.10214080	     33.96179500	      0.20025189	      0.88027198	     -0.18249970	     24.23006346	     -0.50772047	     -6.02220553	     17.77145671	      2.12725810	    -16.14383777	      0.00000000	      0.49952854	      0.77631075	     -1.56741415	      8.41947869	     -6.63886603	    -24.33731956	      0.00000000	     -4.82676025	      0.75307483	    -12.28691375	     -1.15501450	     -2.27440869	     -5.87122172	     23.43840325	     82.53210395	      3.66424232	    -14.02957201	     17.26445494	     34.13905740	     80.86465514
      5.65000000	      0.51849476	     -3.00271878	     34.43360439	      0.20098318	      0.87982986	     -0.18030655	     23.89107111	     -0.58841875	     -6.20579066	     17.77591829	      1.95720314	    -16.25857960	      0.00000000	      0.27563091	      0.71984839	     -1.60523310	      8.48704237	     -6.64659878	    -24.29630904	      0.00000000	     -4.66475147	      0.69237128	    -12.30893744	     -1.38427386	     -2.29367606	     -5.88875549	     23.34702825	     82.53841135	      3.43409772	    -13.82272642	     17.38683828	     34.08841966	     80.91543257
      5.66666670	      0.89545526	     -2.93882143	     35.42167128	      0.20237483	      0.87883483	     -0.17881863	     22.92402984	     -0.44430191	     -6.71921133	     17.40615951	      0.45331415	    -18.27674595	      0.00000000	     -0.29462520	      0.23682595	     -1.06467330	      8.58706241	     -6.04618698	    -23.08407379	      0.00000000	     -5.02041422	      1.09749025	    -12.95239649	     -1.14815384	     -2.19953501	     -6.20168687	     22.99934804	     82.70778221	      3.56331197	    -13.89633437	     18.75952350	     33.24194188	     81.87781294
      5.68333330	      0.91020233	     -2.93737695	     36.28859765	      0.20523589	      0.87808836	     -0.17792361	     22.62653399	     -0.54489665	     -7.67314300	     17.74099359	      0.09314963	    -18.85327764	      0.00000000	     -0.32411056	     -0.09023001	     -0.45609983	      9.05006537	     -5.87195049	    -22.74811402	      0.00000000	     -4.96851847	      1.26581665	    -13.14378266	     -1.27670090	     -2.18908878	     -6.26267401	     22.96593592	     82.74687501	      3.41731136	    -13.76845968	     19.01722092	     33.06631396	     82.05239513
      5.70000000	      1.04633893	     -2.92316319	     37.10089215	      0.21040211	      0.87898942	     -0.17832775	     22.11315856	     -0.50790956	     -8.54158456	     18.10537795	     -0.26140489	    -19.68876077	      0.00000000	     -0.53023855	     -0.51300158	      0.00148896	      9.52670552	     -5.75370811	    -22.27327174	      0.00000000	     -4.92948355	      1.48209076	    -13.55824165	     -1.29881288	     -2.16882235	     -6.35723616	     22.88181016	     82.78959618	      3.09197715	    -13.65274707	     19.35778370	     32.67595433	     82.25547002
